<?xml version="1.0" standalone="no"?>
<!DOCTYPE svg PUBLIC "-//W3C//DTD SVG 1.1//EN" "http://www.w3.org/Graphics/SVG/1.1/DTD/svg11.dtd" >
<svg xmlns="http://www.w3.org/2000/svg">
<metadata>
Created by FontForge 20120731 at Tue Oct 25 11:23:42 2016
 By admin
</metadata>
<defs>
<font id="iconfont" horiz-adv-x="1024" >
  <font-face 
    font-family="iconfont"
    font-weight="500"
    font-stretch="normal"
    units-per-em="1024"
    panose-1="2 0 6 3 0 0 0 0 0 0"
    ascent="896"
    descent="-128"
    x-height="792"
    bbox="34 -154 966 831"
    underline-thickness="50"
    underline-position="-100"
    unicode-range="U+0078-E61F"
  />
<missing-glyph horiz-adv-x="374" 
d="M34 0v682h272v-682h-272zM68 34h204v614h-204v-614z" />
    <glyph glyph-name=".notdef" horiz-adv-x="374" 
d="M34 0v682h272v-682h-272zM68 34h204v614h-204v-614z" />
    <glyph glyph-name=".null" horiz-adv-x="0" 
 />
    <glyph glyph-name="nonmarkingreturn" horiz-adv-x="341" 
 />
    <glyph glyph-name="x" unicode="x" horiz-adv-x="1001" 
d="M281 543q-27 -1 -53 -1h-83q-18 0 -36.5 -6t-32.5 -18.5t-23 -32t-9 -45.5v-76h912v41q0 16 -0.5 30t-0.5 18q0 13 -5 29t-17 29.5t-31.5 22.5t-49.5 9h-133v-97h-438v97zM955 310v-52q0 -23 0.5 -52t0.5 -58t-10.5 -47.5t-26 -30t-33 -16t-31.5 -4.5q-14 -1 -29.5 -0.5
t-29.5 0.5h-32l-45 128h-439l-44 -128h-29h-34q-20 0 -45 1q-25 0 -41 9.5t-25.5 23t-13.5 29.5t-4 30v167h911zM163 247q-12 0 -21 -8.5t-9 -21.5t9 -21.5t21 -8.5q13 0 22 8.5t9 21.5t-9 21.5t-22 8.5zM316 123q-8 -26 -14 -48q-5 -19 -10.5 -37t-7.5 -25t-3 -15t1 -14.5
t9.5 -10.5t21.5 -4h37h67h81h80h64h36q23 0 34 12t2 38q-5 13 -9.5 30.5t-9.5 34.5q-5 19 -11 39h-368zM336 498v228q0 11 2.5 23t10 21.5t20.5 15.5t34 6h188q31 0 51.5 -14.5t20.5 -52.5v-227h-327z" />
    <glyph glyph-name="uniE600" unicode="&#xe600;" 
d="M234 628l-170 -203l93 -209l124 195q10 114 -12 177q-13 36 -35 40zM716 662l-78 51q-28 -61 -64.5 -117t-67 -91.5t-64.5 -67t-50.5 -44.5t-29.5 -22l-4 -2q1 1 4 2q17 12 47.5 49.5t53.5 69.5l22 31l-112 182l-110 -56q4 -8 10.5 -21.5t18 -56.5t11.5 -85
q2 -95 -37 -465h482q-5 196 -14 306q-3 49 -8 133.5t-7.5 143t-2.5 60.5zM602 720q-56 29 -107 29q-22 0 -46 -7t-36 -14l-13 -6q11 -31 38.5 -69.5t48.5 -61.5l22 -24q13 10 36 48t40 72zM741 640q0 -225 2 -236l119 -154l96 161q-131 163 -200 217q-9 8 -17 12z" />
    <glyph glyph-name="uniE601" unicode="&#xe601;" 
d="M776 422h88l6 -3l85 60l-12 9q-24 -15 -58 -28q-17 -6 -42 -8h-34l-122 122l1 1l8 48l-43 -35h-284l-43 35l7 -47l-116 -126h-5l4 2q-45 -4 -77 8q-15 6 -29.5 13t-21.5 11l-7 4l-12 -9l85 -60l6 3h93v-226h-119v-16h119v-2h28v2h593v16h-98v226zM582 196h-26v199h-83
v-199h-35v220h-55v-220h-102v226h301v-226zM748 196h-111v226h111v-226zM350 386h-55v-162h55v162zM716 374h-56v-152h56v152zM171 145h661v19h-661v-19z" />
    <glyph glyph-name="uniE602" unicode="&#xe602;" 
d="M654 186v497l3 3l-145 145l-145 -145l3 -3v-497h-107v-71h178v-178h142v178h178v71h-107zM548 186h-72v462h72v-462z" />
    <glyph glyph-name="uniE603" unicode="&#xe603;" 
d="M909 422l-193 -299h-422l-25 89l-154 401h535l-30 75h-53l-33 76h263l38 -78h-68zM536 500h-195l65 -183h121l53 105zM354.5 115q22.5 0 39 -16.5t16.5 -39.5t-16.5 -39t-39 -16t-39 16t-16.5 39t16.5 39.5t39 16.5zM659 115q23 0 39 -16.5t16 -39.5t-16 -39t-39 -16
t-39.5 16t-16.5 39t16.5 39.5t39.5 16.5z" />
    <glyph glyph-name="uniE604" unicode="&#xe604;" 
d="M281 422l-44 157l-18 4l37 39l-19 32l-155 -150l301 -333v552h-96zM408 148l103 -103l107 108v515l-210 -5v-515zM757 720l-121 -2v-538l116 116v258h23l37 -50l-37 -37v-82h44l123 123z" />
    <glyph glyph-name="uniE605" unicode="&#xe605;" 
d="M499.5 149q-93.5 0 -172.5 23.5t-128 61.5t-69.5 87.5t-3.5 101.5q19 56 79 101.5t144 70t175.5 24.5t173 -24.5t136.5 -70t68 -101.5q11 -52 -14.5 -101.5t-78.5 -87.5t-134.5 -61.5t-175 -23.5zM515.5 475q-36.5 0 -64 -15.5t-29.5 -36.5q-3 -23 23 -39.5t65 -16.5
t66.5 16.5t27.5 39.5q0 21 -26 36.5t-62.5 15.5z" />
    <glyph glyph-name="uniE606" unicode="&#xe606;" 
d="M494.5 349q82.5 0 141 58t58.5 140.5t-58.5 141t-141 58.5t-141 -58.5t-58.5 -141t58.5 -140.5t141 -58zM685 400q-33 -48 -85.5 -76.5t-114.5 -28.5q-103 0 -175 75q-44 -53 -69.5 -125t-25.5 -153q0 -35 6 -71h582q6 36 6 71q0 93 -33 174t-91 134z" />
    <glyph glyph-name="uniE607" unicode="&#xe607;" 
d="M872 461q1 24 -7.5 42.5t-22.5 28.5t-24 15t-20 8q-26 95 -105 155.5t-180 60.5t-180.5 -60.5t-105.5 -155.5q-10 -3 -20.5 -7.5t-24.5 -15t-22.5 -29.5t-7.5 -44q1 -26 13 -44.5t29 -27.5t28 -12t20 -4q4 -2 20 1q-32 -24 -58 -83q-20 -47 -22 -85t15 -47q23 -12 58 34
q13 -43 52 -77q-47 -19 -47 -51q0 -28 36 -47t89 -19q45 0 79 14.5t44 37.5h4h4q9 -23 43.5 -37.5t79.5 -14.5q53 0 89 19t36 47q0 31 -47 51q39 34 52 77q35 -46 58 -34q17 9 15 47t-22 85q-18 41 -41 67q7 15 7 16q11 2 22 6t26.5 13.5t26 27.5t11.5 42zM257 480
q0 104 75 177.5t180.5 73.5t180.5 -73.5t75 -177.5q0 -44 -17 -88q-2 25 -13 43v2q0 13 -6 24q-4 100 -65 161t-155 61t-155 -61t-65 -161q-6 -11 -6 -24v-2q-11 -17 -13 -41q-16 42 -16 86zM782 273q12 -27 17 -53q0 1 -1 1l-46 68l-20 -80q-10 -38 -46 -68l-50 -41l61 -22
q19 -7 26 -15q-3 -4 -12 -9.5t-28.5 -10.5t-43.5 -5t-44.5 5.5t-29.5 11t-11 9.5l-8 25l-34 1l-34 -1l-8 -25q-2 -4 -11 -9.5t-29.5 -11t-44.5 -5.5t-43.5 5t-28.5 10t-12 9q7 9 26 16l61 22l-50 41q-36 30 -46 68l-20 80l-46 -68h-1q5 25 17 52q10 22 21 39t17.5 23t8.5 7
l27 10l-3 28v6q0 16 8 28l6 10v13q0 4 1 6l4 7v9q4 75 50 129t129.5 54t130 -54t50.5 -129v-8l4 -7q1 -3 1 -6l-2 -12l8 -12q8 -12 8 -28q0 -3 -1 -6l-2 -28l19 -7q-49 -75 -133 -102q-3 -1 -10 1q-5 1 -13 1q-15 0 -30 -4q-11 -3 -16 -13t-5 -20q2 -26 25 -30q13 -2 21 -2
q27 0 36 18q0 2 1 4q3 7 5 7q94 32 149 113q14 -19 25 -45zM782 273z" />
    <glyph glyph-name="uniE608" unicode="&#xe608;" 
d="M912 495q0 26 -18.5 44.5t-45.5 18.5h-50q34 33 34 80q0 46 -33 78.5t-79 32.5q-78 0 -129 -121q-22 10 -47.5 10t-47.5 -10q-51 121 -129 121q-39 0 -69 -24t-39 -60q15 -4 31 -9q6 27 27.5 44t49.5 17q59 0 103 -108q-5 -7 -6 -16q3 1 5 1q-2 0 -5 -2v-1l-1 -1
q0 -15 16 -27h-1q-45 -15 -135 35q-46 25 -88 34t-67 6t-47 -13.5t-27 -15t-9 -9.5q-10 -12 2.5 -22t22.5 2q2 3 7 7.5t22 11.5t37.5 8.5t56 -7t74.5 -30.5q77 -42 129 -42q9 0 20 2l2 -2v-1h50v-127h-321v95q0 13 9.5 22.5t22.5 9.5h106q-18 8 -33 16.5t-31 14.5h-42
q-27 0 -45.5 -18.5t-18.5 -44.5v-127h48v-285q0 -26 19 -45t45 -19h241h32h240q27 0 45.5 19t18.5 45v285h49zM528 51h-241q-13 0 -22.5 9.5t-9.5 22.5v285h273v-317zM624 590q0 10 -7 19q44 108 103 108q33 0 56.5 -23t23.5 -56t-23.5 -56t-56.5 -23h-117q21 13 21 31z
M544 574q-10 0 -19 1q-2 5 -6 7q-8 4 -15 -1q-8 4 -8 9q0 7 14 11.5t34 4.5q13 0 24 -2t17.5 -6t6.5 -8q0 -6 -14 -11t-34 -5zM832 83q0 -13 -9.5 -22.5t-22.5 -9.5h-240v317h272v-285zM880 400h-320v127h160h128q14 0 23 -9.5t9 -22.5v-95zM880 400z" />
    <glyph glyph-name="uniE609" unicode="&#xe609;" 
d="M80 21h140v726h-140v-726zM274 635h28v-56h-28v-363h28v-55h-28v-56h111v56h-27v55h27v363h-27v56h27v56h-111v-56zM413 635h28v-56h-28v-363h28v-55h-28v-56h112v56h-28v55h28v363h-28v56h28v56h-112v-56zM553 635h28v-56h-28v-363h28v-55h-28v-56h112v56h-28v55h28v363
h-28v56h28v56h-112v-56zM693 635h28v-56h-28v-363h28v-55h-28v-56h111v56h-28v55h28v363h-28v56h28v56h-111v-56zM944 635v56h-112v-56h28v-56h-28v-363h28v-55h-28v-56h112v56h-28v55h28v363h-28v56h28z" />
    <glyph glyph-name="uniE60A" unicode="&#xe60a;" 
d="M99 768v-768h826v768h-826zM867 58h-710v652h710v-652zM829 237l-157 92l-116 -68l-186 160l-175 -112v-213h634v141z" />
    <glyph glyph-name="uniE60B" unicode="&#xe60b;" 
d="M719 255v319q-52 -14 -164 -44.5t-171 -46.5v-395q-60 -60 -91 -92q-15 1 -27 1.5t-23 2t-18 2.5t-16.5 4.5t-13 4t-13 6t-12 7t-14 9t-15.5 9.5v15q3 8 8 23t7 23q13 15 38.5 45.5t37.5 45.5h92q2 81 7 238.5t8 232.5q76 18 227.5 53.5t228.5 53.5q-3 -111 -8 -325
t-7 -314q-34 -27 -61 -42.5t-59.5 -24t-63.5 4.5t-60 47q3 8 8 23.5t8 22.5q12 15 37.5 45.5t38.5 45.5h91z" />
    <glyph glyph-name="uniE60C" unicode="&#xe60c;" 
d="M908 481q2 5 7 15t8 15q-73 42 -213 121.5t-205 117.5q-67 -37 -201.5 -111.5t-202.5 -112.5v-15q65 -38 199.5 -118t204.5 -121q58 30 194 100.5t209 108.5zM146 406q-21 -31 -30 -44q258 -149 389 -225q55 31 186.5 101.5t201.5 108.5q3 5 8 15t7 15l-7 14q-5 10 -8 15
q-67 -34 -192.5 -99.5t-181.5 -94.5q-56 29 -181 94.5t-192 99.5zM534 93q-58 28 -193.5 93t-209.5 101l-17 -9l-13 -6q20 -43 71 -81.5t103.5 -62.5t117 -55t97.5 -55q77 37 223 107.5t210 101.5v15q-25 19 -67 13.5t-86.5 -22t-91.5 -43.5t-83 -51.5t-61 -45.5z" />
    <glyph glyph-name="uniE60D" unicode="&#xe60d;" 
d="M512 0q-104 0 -192.5 51.5t-140 140t-51.5 192.5t51.5 192.5t140 140t192.5 51.5t192.5 -51.5t140 -140t51.5 -192.5t-51.5 -192.5t-140 -140t-192.5 -51.5zM512 753q-100 0 -185 -49.5t-134.5 -134.5t-49.5 -185t49.5 -185t134.5 -134.5t185 -49.5t185 49.5t134.5 134.5
t49.5 185t-49.5 185t-134.5 134.5t-185 49.5zM512 -3q-105 0 -194.5 51.5t-141 141t-51.5 194.5t51.5 194.5t141 141t194.5 51.5t194.5 -51.5t141 -141t51.5 -194.5t-51.5 -194.5t-141 -141t-194.5 -51.5zM512 765q-103 0 -191 -51t-139 -139t-51 -191t51 -191t139 -139
t191 -51t191 51t139 139t51 191t-51 191t-139 139t-191 51zM512 12q-101 0 -186.5 50t-135.5 135.5t-50 186.5t50 186.5t135.5 135.5t186.5 50t186.5 -50t135.5 -135.5t50 -186.5t-50 -186.5t-135.5 -135.5t-186.5 -50zM512 750q-99 0 -183.5 -49t-133.5 -133.5t-49 -183.5
t49 -183.5t133.5 -133.5t183.5 -49t183.5 49t133.5 133.5t49 183.5t-49 183.5t-133.5 133.5t-183.5 49zM512 -6q-106 0 -195.5 52.5t-142 142t-52.5 195.5t52.5 195.5t142 142t195.5 52.5t195.5 -52.5t142 -142t52.5 -195.5t-52.5 -195.5t-142 -142t-195.5 -52.5zM512 763
q-103 0 -190.5 -50.5t-138 -138t-50.5 -190.5t50.5 -190.5t138 -138t190.5 -50.5t190.5 50.5t138 138t50.5 190.5t-50.5 190.5t-138 138t-190.5 50.5zM512 10q-101 0 -187.5 50t-136.5 136.5t-50 187.5t50 187.5t136.5 136.5t187.5 50t187.5 -50t136.5 -136.5t50 -187.5
t-50 -187.5t-136.5 -136.5t-187.5 -50zM512 748q-99 0 -182.5 -49t-132.5 -132.5t-49 -182.5t49 -182.5t132.5 -132.5t182.5 -49t182.5 49t132.5 132.5t49 182.5t-49 182.5t-132.5 132.5t-182.5 49zM512 -9q-106 0 -196.5 53t-143.5 143.5t-53 196.5t53 196.5t143.5 143.5
t196.5 53t196.5 -53t143.5 -143.5t53 -196.5t-53 -196.5t-143.5 -143.5t-196.5 -53zM512 770q-105 0 -194 -51.5t-140.5 -140.5t-51.5 -194t51.5 -194t140.5 -140.5t194 -51.5t194 51.5t140.5 140.5t51.5 194t-51.5 194t-140.5 140.5t-194 51.5zM512 2q-104 0 -192 51
t-139 139t-51 192t51 192t139 139t192 51t192 -51t139 -139t51 -192t-51 -192t-139 -139t-192 -51zM512 755q-101 0 -186.5 -49.5t-135 -135t-49.5 -186.5t49.5 -186.5t135 -135t186.5 -49.5t186.5 49.5t135 135t49.5 186.5t-49.5 186.5t-135 135t-186.5 49.5zM512 17
q-99 0 -184 49t-134 134t-49 184t49 184t134 134t184 49t184 -49t134 -134t49 -184t-49 -184t-134 -134t-184 -49zM512 745q-98 0 -181 -48.5t-131.5 -131.5t-48.5 -181t48.5 -181t131.5 -131.5t181 -48.5t181 48.5t131.5 131.5t48.5 181t-48.5 181t-131.5 131.5t-181 48.5z
M637 259h-250v250h250v-250zM402 274h220v220h-220v-220zM640 256h-256v256h256v-256zM390 262h244v244h-244v-244zM625 271h-226v226h226v-226zM405 277h214v214h-214v-214zM642 254h-260v260h260v-260zM392 264h240v240h-240v-240zM627 269h-230v230h230v-230zM407 279
h210v210h-210v-210zM646 250h-268v268h268v-268zM385 257h254v254h-254v-254zM635 261h-246v246h246v-246zM400 272h224v224h-224v-224zM620 276h-216v216h216v-216zM410 282h204v204h-204v-204z" />
    <glyph glyph-name="uniE60E" unicode="&#xe60e;" 
d="M382 365h-194l324 389l324 -389h-194v-324h-260v324zM901 106v-195h-778v195h-65v-260h908v260h-65z" />
    <glyph glyph-name="uniE60F" unicode="&#xe60f;" 
d="M718 384l-332 -192v384zM512 -11q-80 0 -154 31q-71 30 -125.5 84.5t-84.5 125.5q-31 74 -31 154t31 154q30 71 84.5 125.5t125.5 84.5q74 31 154 31t154 -31q71 -30 125.5 -84.5t84.5 -125.5q31 -74 31 -154t-31 -154q-30 -71 -84.5 -125.5t-125.5 -84.5
q-74 -31 -154 -31zM512 732q-94 0 -174.5 -46.5t-127 -127t-46.5 -174.5t46.5 -174.5t127 -127t174.5 -46.5t174.5 46.5t127 127t46.5 174.5t-46.5 174.5t-127 127t-174.5 46.5zM512 -17q-81 0 -156 32q-72 30 -127.5 85.5t-85.5 127.5q-32 75 -32 156t32 156
q30 72 85.5 127.5t127.5 85.5q75 32 156 32t156 -32q72 -30 127.5 -85.5t85.5 -127.5q32 -75 32 -156t-32 -156q-30 -72 -85.5 -127.5t-127.5 -85.5q-75 -32 -156 -32zM512 773q-79 0 -152 -30q-69 -30 -123 -84t-84 -123q-30 -73 -30 -152t30 -152q30 -69 84 -123t123 -84
q73 -30 152 -30t152 30q69 30 123 84t84 123q30 73 30 152t-30 152q-30 69 -84 123t-123 84q-73 30 -152 30zM512 30q-96 0 -177.5 47.5t-129 129t-47.5 177.5t47.5 177.5t129 129t177.5 47.5t177.5 -47.5t129 -129t47.5 -177.5t-47.5 -177.5t-129 -129t-177.5 -47.5z
M512 726q-93 0 -172 -45.5t-124.5 -124.5t-45.5 -172t45.5 -172t124.5 -124.5t172 -45.5t172 45.5t124.5 124.5t45.5 172t-45.5 172t-124.5 124.5t-172 45.5z" />
    <glyph glyph-name="uniE610" unicode="&#xe610;" 
d="M489 667l50 1l-1 79l18 46l-88 -1l20 -45zM540 658l-52 -1l-23 -47l100 1zM385 599l28 -60l102 -27l101 31l23 59zM439 513l7 -65l13 -17l24 -378l40 -78l36 79l14 377l11 17l9 66l-78 -22zM530 429l-8 -424l-20 423l-24 16l77 1z" />
    <glyph glyph-name="uniE611" unicode="&#xe611;" 
d="M622 535l40 -27l-30 93h-81v88l17 29l-55 60l-61 -61l24 -31v-85h-86l-28 -93l43 27h29l13 -16v-22l-25 -10l25 -26v-393l65 -78l76 77v393l23 32l-22 9l-2 20l6 14h29zM527 99h-15v455h15v-455zM527 705h-31v30h31v-30z" />
    <glyph glyph-name="uniE612" unicode="&#xe612;" 
d="M246 664v-517h43v488h43v-253q43 -28 143 -91h81l136 87v257h43v-488h43v517h-532zM519 347l-137 136l137 137l136 -137zM663 190h29v129h-29v-129zM591 147h29v144h-29v-144zM505 104h29v158h-29v-158zM419 147h28v144h-28v-144zM332 190h29v129h-29v-129zM433 484
l84 -85l85 85l-85 84z" />
    <glyph glyph-name="uniE613" unicode="&#xe613;" 
d="M936 281h-188l-120 52v313l79 47h-60l-37 -19v-9h-335v9l-36 19h-61l84 -50v-362h-48l2 -27h83q-2 -14 -2 -29q0 -62 44 -106t106 -44t106 44t44 106q0 15 -3 29h342v27zM432 110q-30 5 -54 23l54 54v-77zM460 187l57 -57q-26 -18 -57 -20v77zM543 298q22 -28 24 -63h-87
zM460 254v91q36 -3 64 -26zM432 254l-61 62q26 23 61 28v-90zM352 295l60 -60h-81q2 33 21 60zM333 207h79l-54 -55q-20 24 -25 55zM538 149l-58 58h85q-5 -33 -27 -58zM604 474h-312v38h312v-38zM604 539h-309v103h309v-103z" />
    <glyph glyph-name="uniE614" unicode="&#xe614;" 
d="M512 126q-92 0 -156.5 65t-64.5 156q0 78 48 138t122 78v-4h23v8q14 2 28 2q9 0 19 -1v-9h23v6q77 -15 128 -76t51 -142q0 -65 -36 -120l25 -25q45 66 45 145q0 95 -60.5 166t-152.5 86v30h117v47h-327v-47h117v-31q-88 -18 -146 -88.5t-58 -162.5q0 -105 74.5 -180
t180.5 -75q92 0 162 58l-24 25q-61 -49 -138 -49zM484 629h47v-27q-10 1 -19 1q-14 0 -28 -2v28zM624 299l47 -46q26 44 26 96q0 79 -55.5 134.5t-134 55.5t-134 -55.5t-55.5 -134.5t55.5 -134.5t134.5 -55.5q65 0 117 41l-50 50l8 8l123 -123l33 33l-123 123zM537.5 254
q-34.5 0 -58.5 24t-24 58.5t24 58.5t58.5 24t58.5 -24t24 -58.5t-24 -58.5t-58.5 -24zM538.5 406q-29.5 0 -50 -20.5t-20.5 -50t20.5 -50t50 -20.5t50 20.5t20.5 50t-20.5 50t-50 20.5z" />
    <glyph glyph-name="uniE615" unicode="&#xe615;" 
d="M563 511l36 36l-86 231l-88 -230l37 -37h101zM549 460v29h-75v-29h75zM473 -10h75v343l-75 -20v-323zM553 443q-14 4 -50 5q-25 1 -55 -23t-42 -48q-11 -20 -10 -58.5t15 -60.5q0 3 0.5 8.5t4.5 18.5t10 23.5t18.5 20t28.5 10.5q49 4 74 19.5t23 50.5q-1 12 -5 20.5
t-8 10.5z" />
    <glyph glyph-name="uniE616" unicode="&#xe616;" 
d="M893 389q-7 10 -19 26.5t-52 58.5t-82.5 74t-107.5 58.5t-130 26.5q-47 0 -93 -13.5t-82 -34.5t-68 -47t-55 -51.5t-39.5 -47t-24.5 -34.5l-9 -14l351 -207l-18 -18l50 -31l47 32l-20 21zM391 276l31 15l52 -61zM483 244l-195 296l4 8l196 -303zM456 305l29 2l6 -56z
M503 245l-8 377h10l3 -372zM555 229l36 56l26 -17zM755 518l-206 -270l-6 2l205 270zM527 252l-3 58l37 -5l-29 -50z" />
    <glyph glyph-name="uniE617" unicode="&#xe617;" 
d="M482 747l-28 -33l29 -43v-81q-4 0 -10 -2t-21.5 -11.5t-27.5 -23t-22 -40.5t-10 -62q6 -23 17 -40t19 -22l8 -5q-5 -2 -14 -6t-31 -19t-39.5 -33.5t-31.5 -51t-14 -69.5q0 -47 19.5 -84t51 -58t66 -31.5t68.5 -10.5t69.5 12.5t66.5 36t51 63t20 87.5q-3 38 -17.5 68
t-30.5 46t-36 28t-28 14.5t-13 3.5q2 1 4.5 3t8.5 9.5t11 17t8.5 27t3.5 38.5q0 26 -9.5 47.5t-23 33.5t-27 20.5t-22.5 11.5l-10 2v41l57 -3l9 13z" />
    <glyph glyph-name="uniE618" unicode="&#xe618;" 
d="M478 34q14 -20 32 -20q8 0 14.5 5t9.5 10l3 5v284h-59v-284zM762 627q-36 18 -71 29.5t-59.5 15.5t-44 5.5t-29.5 0.5l-10 -1q1 3 1.5 8t0 18.5t-3.5 23.5t-12.5 18.5t-23.5 8.5q-23 0 -32.5 -19.5t-6.5 -38.5l2 -19q-12 0 -33 -2t-79 -14.5t-108 -33.5q-41 -18 -67 -46
t-31 -58.5t17 -63t70 -57.5q59 -30 118 -46t89 -17h29v-5h59v9q18 2 48 6.5t102.5 24t121.5 46.5q55 30 65.5 66.5t-19 72.5t-93.5 68zM309 486l160 164l13 -12zM504 441l-8 203h16zM526 643l14 7l171 -167z" />
    <glyph glyph-name="uniE619" unicode="&#xe619;" 
d="M827 638l-32 31l-90 -4l-2 -50l-195 -195l-101 6l13 25l159 159l36 7l4 92l-107 13l-12 -47l-179 -178l-71 4l-4 -21v-41l-36 -36l-56 56l-63 -62l350 -351l59 59l-57 57l67 67l46 -34l19 28l9 125l201 202h44zM571 678v-28h-21l-2 28h23zM495 223l-117 109l-57 -57
l-33 34l42 41l8 13l-6 -6l-67 67l-2 27l81 -81l26 12l10 -21l130 -130zM781 581h-30l2 44h28v-44z" />
    <glyph glyph-name="uniE61A" unicode="&#xe61a;" 
d="M903 541q-5 6 -15 15.5t-43 30.5t-69.5 32.5t-94 11t-117.5 -23.5q-34 -12 -61.5 -28.5t-42 -32t-24.5 -29.5t-13 -22l-3 -8q3 1 7.5 3t17 6t23.5 4.5t25 -5t24 -18.5q21 -27 -6 -42q-35 -19 -91 9q-40 20 -75 61q-30 33 -46 70t-16.5 66.5t3.5 54t10 38.5l6 13
q-2 -1 -5 -3t-12.5 -9.5t-18.5 -16t-20.5 -23.5t-20.5 -31t-16.5 -38.5t-11.5 -46.5t-2.5 -55t8.5 -64q15 -50 37.5 -87t42 -53.5t42.5 -25.5t30.5 -10t12.5 -1q-2 4 -5.5 9.5t-9.5 20.5t-8 27t4.5 24t22.5 16q23 5 38 -35q22 -61 -8 -130q-23 -55 -75 -90
q-111 -77 -190 -42l-16 9q3 -3 9 -8t31 -17.5t56 -21.5t86 -14t119 0q42 7 75.5 28.5t52 45t31 48.5t17 38.5t4.5 15.5q-1 -1 -2.5 -3.5t-7.5 -8.5t-14 -9.5t-23 -3.5t-34 6q-39 11 -34 36q5 24 43 31q20 4 45 -1q70 -14 120.5 -47t96.5 -113q18 -50 20 -73q2 7 6.5 18.5
t13 47t11.5 69.5t-3 77.5t-25 77.5q-16 28 -36.5 50.5t-37.5 33.5t-32 18.5t-23 9.5l-8 2q0 -4 1 -10.5t1.5 -22.5t-1.5 -28.5t-11.5 -23t-24.5 -11.5q-24 0 -31 31q-11 48 30 99q19 23 48 41t56 29.5t43.5 16t42 4t33.5 -2t38 -6.5z" />
    <glyph glyph-name="uniE61B" unicode="&#xe61b;" 
d="M626 297q31 0 53 22t22 53v228q0 31 -22 53t-53 22h-379q-31 0 -53.5 -22t-22.5 -53v-228q0 -31 22.5 -53t53.5 -22h48l30 -129l151 129h150zM777 574h-47l-3 -255q0 -21 -13 -33t-25 -13l-13 -2h-185l-42 -50h99l151 -128l30 128h48q31 0 53.5 22t22.5 54v202
q0 31 -22.5 53t-53.5 22z" />
    <glyph glyph-name="uniE61C" unicode="&#xe61c;" 
d="M825 409q-13 5 -15 17t2 36q10 74 -31 114q-26 25 -47 33t-64 10q-2 -1 -5 -1.5t-10.5 -1.5t-13.5 0t-12 5.5t-9 12.5q-9 33 35 39q74 9 126 -27q39 -27 57 -53.5t31 -86.5q3 -23 1 -41.5t-7 -29.5t-11.5 -18.5t-13.5 -8.5t-13 1zM711 516q-2 11 -31 13q-33 3 -35 14
q1 4 0 12.5t9 16t30 5.5q21 -1 35.5 -6.5t18.5 -11.5l4 -5q7 -4 12.5 -12t7.5 -13l3 -6q9 -25 8 -43.5t-9.5 -29t-18.5 -8.5q-14 2 -18 11t-3 28q1 11 -2 19.5t-7 12.5zM684 421q-6 -25 0 -23q9 2 28 -7.5t37 -29t27.5 -45t-5 -61.5t-55.5 -72q-159 -138 -402 -64
q-80 25 -126.5 77t-30.5 117q16 67 62.5 128t107.5 101q125 84 170 33q14 -15 15.5 -37t-3.5 -37l-6 -14q4 -4 8 -3.5t21 6.5q11 5 18 7q68 24 114 2q13 -5 19.5 -14t6.5 -21t-1.5 -20t-4.5 -23zM532 413q-13 3 -34 5.5t-72.5 -1t-87.5 -19.5q-65 -31 -96 -79.5t-2 -97.5
q55 -93 215 -82q75 5 134.5 46t66.5 99q3 29 -11 53.5t-37 39.5t-42 24t-34 12zM452 170q-23 -9 -50.5 -3.5t-50.5 18t-33.5 37.5t-1.5 56q7 24 22 41.5t30.5 25.5t30.5 13t24 5l9 1q3 0 7 0.5t16 -1t23 -5t23.5 -12.5t20.5 -22q24 -37 16.5 -68.5t-30.5 -53t-56 -32.5z
M377 277q-19 -11 -23 -28q-4 -13 3 -25t24 -14t31.5 8.5t16.5 23.5q3 16 -11.5 30.5t-40.5 4.5zM450 296q-12 0 -14 -11q-2 -9 5.5 -13t15.5 2q8 5 6 13.5t-13 8.5z" />
    <glyph glyph-name="uniE61D" unicode="&#xe61d;" 
d="M512 751q-100 0 -184.5 -49t-133.5 -133.5t-49 -184.5v-275q0 -38 27 -65t65 -27t65 27t27 65v137q0 38 -27 65t-65 27v46q0 114 80.5 194.5t194.5 80.5t194.5 -80.5t80.5 -194.5v-46q-38 0 -65 -27t-27 -65v-137q0 -38 27 -65t65 -27t65 27t27 65v275q0 100 -49 184.5
t-133.5 133.5t-184.5 49zM512 751z" />
    <glyph glyph-name="uniE61E" unicode="&#xe61e;" 
d="M359 669h6l56 -164l18 6l4 -7l37 16l-4 8l23 14l-92 142q34 23 34 63q0 33 -24 56t-57.5 23t-57.5 -23t-24 -55.5t24 -55.5t57 -23zM359.5 787q16.5 0 28.5 -11.5t12 -28t-12 -28t-28.5 -11.5t-28.5 11.5t-12 28t12 28t28.5 11.5zM685 40l61 59l-81 236h-82l-40 59
l-62 -20v-78l-40 -40l142 -314l102 98l-163 315h21zM604 433l61 118h-143q0 -3 -1 -9t-11.5 -21.5t-28.5 -28t-43 -12.5t-42 6l-16 6l-102 -98l142 -20q7 6 19 15t44.5 25.5t59.5 18.5h61z" />
    <glyph glyph-name="uniE61F" unicode="&#xe61f;" 
d="M512 763q-103 0 -190 -51t-138 -138t-51 -190t51 -190t138 -138t190 -51t190 51t138 138t51 190t-51 190t-138 138t-190 51zM512 40q-93 0 -172.5 46t-125.5 125.5t-46 172.5t46 172.5t125.5 125.5t172.5 46t172.5 -46t125.5 -125.5t46 -172.5t-46 -172.5t-125.5 -125.5
t-172.5 -46zM512 475q-15 35 -39 57.5t-50.5 30t-53 1.5t-48 -24t-35 -49.5t-13.5 -71.5q0 -22 7 -42t16 -33t26 -27.5t28.5 -22.5t33 -20.5t29.5 -18.5q38 -24 66 -55.5t33 -49.5q4 16 33.5 48.5t65.5 57.5q10 8 35 23t39.5 26t32 28t25.5 38.5t8 48.5q0 40 -14 71.5
t-35.5 48.5t-48.5 22.5t-53 -2t-50 -29.5t-38 -56z" />
  </font>
</defs>
</svg>
